<mxfile host="app.diagrams.net" agent="Mozilla/5.0 (Windows NT 10.0; Win64; x64) AppleWebKit/537.36 (KHTML, like Gecko) Chrome/130.0.0.0 Safari/537.36" version="24.8.3">
  <diagram id="R2lEEEUBdFMjLlhIrx00" name="Page-1">
    <mxGraphModel dx="1805" dy="517" grid="1" gridSize="10" guides="1" tooltips="1" connect="1" arrows="1" fold="1" page="1" pageScale="1" pageWidth="850" pageHeight="1100" math="0" shadow="0" extFonts="Permanent Marker^https://fonts.googleapis.com/css?family=Permanent+Marker">
      <root>
        <mxCell id="0" />
        <mxCell id="1" parent="0" />
        <mxCell id="wdkWQH8ycHaQAplH8aqO-78" style="edgeStyle=orthogonalEdgeStyle;rounded=0;orthogonalLoop=1;jettySize=auto;html=1;exitX=0.75;exitY=1;exitDx=0;exitDy=0;entryX=0;entryY=0.25;entryDx=0;entryDy=0;" edge="1" parent="1" source="wdkWQH8ycHaQAplH8aqO-1" target="wdkWQH8ycHaQAplH8aqO-25">
          <mxGeometry relative="1" as="geometry">
            <Array as="points">
              <mxPoint x="520" y="159" />
              <mxPoint x="520" y="170" />
              <mxPoint x="60" y="170" />
              <mxPoint x="60" y="384" />
            </Array>
          </mxGeometry>
        </mxCell>
        <mxCell id="wdkWQH8ycHaQAplH8aqO-1" value="" style="rounded=0;whiteSpace=wrap;html=1;fontFamily=Architects Daughter;fontSource=https%3A%2F%2Ffonts.googleapis.com%2Fcss%3Ffamily%3DArchitects%2BDaughter;" vertex="1" parent="1">
          <mxGeometry x="84" y="99" width="506" height="60" as="geometry" />
        </mxCell>
        <mxCell id="wdkWQH8ycHaQAplH8aqO-2" value="" style="endArrow=none;html=1;rounded=0;fontFamily=Architects Daughter;fontSource=https%3A%2F%2Ffonts.googleapis.com%2Fcss%3Ffamily%3DArchitects%2BDaughter;" edge="1" parent="1">
          <mxGeometry width="50" height="50" relative="1" as="geometry">
            <mxPoint x="144" y="159" as="sourcePoint" />
            <mxPoint x="144" y="99" as="targetPoint" />
          </mxGeometry>
        </mxCell>
        <mxCell id="wdkWQH8ycHaQAplH8aqO-3" value="&lt;font style=&quot;font-size: 18px;&quot;&gt;&lt;b style=&quot;font-size: 18px;&quot;&gt;Student&lt;/b&gt;&lt;/font&gt;" style="text;html=1;align=center;verticalAlign=middle;resizable=0;points=[];autosize=1;strokeColor=none;fillColor=none;fontFamily=Architects Daughter;fontSource=https%3A%2F%2Ffonts.googleapis.com%2Fcss%3Ffamily%3DArchitects%2BDaughter;fontSize=18;" vertex="1" parent="1">
          <mxGeometry x="75" y="60" width="90" height="40" as="geometry" />
        </mxCell>
        <mxCell id="wdkWQH8ycHaQAplH8aqO-4" value="&lt;font style=&quot;font-size: 17px;&quot;&gt;&lt;b&gt;id&lt;/b&gt;&lt;/font&gt;" style="text;html=1;align=center;verticalAlign=middle;resizable=0;points=[];autosize=1;strokeColor=none;fillColor=none;fontStyle=4;fontFamily=Architects Daughter;fontSource=https%3A%2F%2Ffonts.googleapis.com%2Fcss%3Ffamily%3DArchitects%2BDaughter;" vertex="1" parent="1">
          <mxGeometry x="99" y="114" width="30" height="30" as="geometry" />
        </mxCell>
        <mxCell id="wdkWQH8ycHaQAplH8aqO-5" value="&lt;font style=&quot;font-size: 17px;&quot;&gt;&lt;b&gt;age&lt;/b&gt;&lt;/font&gt;" style="text;html=1;align=center;verticalAlign=middle;resizable=0;points=[];autosize=1;strokeColor=none;fillColor=none;fontFamily=Architects Daughter;fontSource=https%3A%2F%2Ffonts.googleapis.com%2Fcss%3Ffamily%3DArchitects%2BDaughter;" vertex="1" parent="1">
          <mxGeometry x="159" y="114" width="50" height="30" as="geometry" />
        </mxCell>
        <mxCell id="wdkWQH8ycHaQAplH8aqO-6" value="" style="endArrow=none;html=1;rounded=0;fontFamily=Architects Daughter;fontSource=https%3A%2F%2Ffonts.googleapis.com%2Fcss%3Ffamily%3DArchitects%2BDaughter;" edge="1" parent="1">
          <mxGeometry width="50" height="50" relative="1" as="geometry">
            <mxPoint x="225" y="159" as="sourcePoint" />
            <mxPoint x="225" y="99" as="targetPoint" />
          </mxGeometry>
        </mxCell>
        <mxCell id="wdkWQH8ycHaQAplH8aqO-7" value="&lt;font style=&quot;font-size: 17px;&quot;&gt;&lt;b&gt;Lname&lt;/b&gt;&lt;/font&gt;" style="text;html=1;align=center;verticalAlign=middle;resizable=0;points=[];autosize=1;strokeColor=none;fillColor=none;fontFamily=Architects Daughter;fontSource=https%3A%2F%2Ffonts.googleapis.com%2Fcss%3Ffamily%3DArchitects%2BDaughter;" vertex="1" parent="1">
          <mxGeometry x="225" y="114" width="70" height="30" as="geometry" />
        </mxCell>
        <mxCell id="wdkWQH8ycHaQAplH8aqO-8" value="&lt;span style=&quot;font-size: 17px;&quot;&gt;&lt;b&gt;Fname&lt;/b&gt;&lt;/span&gt;" style="text;html=1;align=center;verticalAlign=middle;resizable=0;points=[];autosize=1;strokeColor=none;fillColor=none;fontFamily=Architects Daughter;fontSource=https%3A%2F%2Ffonts.googleapis.com%2Fcss%3Ffamily%3DArchitects%2BDaughter;" vertex="1" parent="1">
          <mxGeometry x="295" y="115" width="70" height="30" as="geometry" />
        </mxCell>
        <mxCell id="wdkWQH8ycHaQAplH8aqO-9" value="" style="endArrow=none;html=1;rounded=0;fontFamily=Architects Daughter;fontSource=https%3A%2F%2Ffonts.googleapis.com%2Fcss%3Ffamily%3DArchitects%2BDaughter;" edge="1" parent="1">
          <mxGeometry width="50" height="50" relative="1" as="geometry">
            <mxPoint x="292" y="159" as="sourcePoint" />
            <mxPoint x="292" y="99" as="targetPoint" />
          </mxGeometry>
        </mxCell>
        <mxCell id="wdkWQH8ycHaQAplH8aqO-10" value="" style="endArrow=none;dashed=1;html=1;dashPattern=1 3;strokeWidth=2;rounded=0;entryX=0.919;entryY=0.949;entryDx=0;entryDy=0;entryPerimeter=0;" edge="1" parent="1">
          <mxGeometry width="50" height="50" relative="1" as="geometry">
            <mxPoint x="506.09000000000003" y="143" as="sourcePoint" />
            <mxPoint x="506.09000000000003" y="143" as="targetPoint" />
          </mxGeometry>
        </mxCell>
        <mxCell id="wdkWQH8ycHaQAplH8aqO-11" value="" style="endArrow=none;html=1;rounded=0;fontFamily=Architects Daughter;fontSource=https%3A%2F%2Ffonts.googleapis.com%2Fcss%3Ffamily%3DArchitects%2BDaughter;" edge="1" parent="1">
          <mxGeometry width="50" height="50" relative="1" as="geometry">
            <mxPoint x="369" y="159" as="sourcePoint" />
            <mxPoint x="369" y="99" as="targetPoint" />
          </mxGeometry>
        </mxCell>
        <mxCell id="wdkWQH8ycHaQAplH8aqO-12" value="&lt;span style=&quot;font-size: 17px;&quot;&gt;&lt;b&gt;address&lt;/b&gt;&lt;/span&gt;" style="text;html=1;align=center;verticalAlign=middle;resizable=0;points=[];autosize=1;strokeColor=none;fillColor=none;fontFamily=Architects Daughter;fontSource=https%3A%2F%2Ffonts.googleapis.com%2Fcss%3Ffamily%3DArchitects%2BDaughter;" vertex="1" parent="1">
          <mxGeometry x="373" y="115" width="90" height="30" as="geometry" />
        </mxCell>
        <mxCell id="wdkWQH8ycHaQAplH8aqO-61" style="edgeStyle=orthogonalEdgeStyle;rounded=0;orthogonalLoop=1;jettySize=auto;html=1;exitX=0.75;exitY=1;exitDx=0;exitDy=0;entryX=0;entryY=0.5;entryDx=0;entryDy=0;" edge="1" parent="1" source="wdkWQH8ycHaQAplH8aqO-13" target="wdkWQH8ycHaQAplH8aqO-34">
          <mxGeometry relative="1" as="geometry">
            <Array as="points">
              <mxPoint x="470" y="299" />
              <mxPoint x="470" y="320" />
              <mxPoint x="40" y="320" />
              <mxPoint x="40" y="530" />
            </Array>
          </mxGeometry>
        </mxCell>
        <mxCell id="wdkWQH8ycHaQAplH8aqO-13" value="" style="rounded=0;whiteSpace=wrap;html=1;fontFamily=Architects Daughter;fontSource=https%3A%2F%2Ffonts.googleapis.com%2Fcss%3Ffamily%3DArchitects%2BDaughter;" vertex="1" parent="1">
          <mxGeometry x="84" y="239" width="436" height="60" as="geometry" />
        </mxCell>
        <mxCell id="wdkWQH8ycHaQAplH8aqO-14" value="" style="endArrow=none;html=1;rounded=0;fontFamily=Architects Daughter;fontSource=https%3A%2F%2Ffonts.googleapis.com%2Fcss%3Ffamily%3DArchitects%2BDaughter;" edge="1" parent="1">
          <mxGeometry width="50" height="50" relative="1" as="geometry">
            <mxPoint x="144" y="299" as="sourcePoint" />
            <mxPoint x="144" y="239" as="targetPoint" />
          </mxGeometry>
        </mxCell>
        <mxCell id="wdkWQH8ycHaQAplH8aqO-15" value="&lt;font style=&quot;font-size: 18px;&quot;&gt;&lt;b style=&quot;font-size: 18px;&quot;&gt;Course&lt;/b&gt;&lt;/font&gt;" style="text;html=1;align=center;verticalAlign=middle;resizable=0;points=[];autosize=1;strokeColor=none;fillColor=none;fontFamily=Architects Daughter;fontSource=https%3A%2F%2Ffonts.googleapis.com%2Fcss%3Ffamily%3DArchitects%2BDaughter;fontSize=18;" vertex="1" parent="1">
          <mxGeometry x="80" y="200" width="80" height="40" as="geometry" />
        </mxCell>
        <mxCell id="wdkWQH8ycHaQAplH8aqO-16" value="&lt;font style=&quot;font-size: 17px;&quot;&gt;&lt;b&gt;id&lt;/b&gt;&lt;/font&gt;" style="text;html=1;align=center;verticalAlign=middle;resizable=0;points=[];autosize=1;strokeColor=none;fillColor=none;fontStyle=4;fontFamily=Architects Daughter;fontSource=https%3A%2F%2Ffonts.googleapis.com%2Fcss%3Ffamily%3DArchitects%2BDaughter;" vertex="1" parent="1">
          <mxGeometry x="99" y="254" width="30" height="30" as="geometry" />
        </mxCell>
        <mxCell id="wdkWQH8ycHaQAplH8aqO-17" value="&lt;font style=&quot;font-size: 17px;&quot;&gt;&lt;b&gt;name&lt;/b&gt;&lt;/font&gt;" style="text;html=1;align=center;verticalAlign=middle;resizable=0;points=[];autosize=1;strokeColor=none;fillColor=none;fontFamily=Architects Daughter;fontSource=https%3A%2F%2Ffonts.googleapis.com%2Fcss%3Ffamily%3DArchitects%2BDaughter;" vertex="1" parent="1">
          <mxGeometry x="154" y="254" width="60" height="30" as="geometry" />
        </mxCell>
        <mxCell id="wdkWQH8ycHaQAplH8aqO-18" value="" style="endArrow=none;html=1;rounded=0;fontFamily=Architects Daughter;fontSource=https%3A%2F%2Ffonts.googleapis.com%2Fcss%3Ffamily%3DArchitects%2BDaughter;" edge="1" parent="1">
          <mxGeometry width="50" height="50" relative="1" as="geometry">
            <mxPoint x="225" y="299" as="sourcePoint" />
            <mxPoint x="225" y="239" as="targetPoint" />
          </mxGeometry>
        </mxCell>
        <mxCell id="wdkWQH8ycHaQAplH8aqO-19" value="&lt;font style=&quot;font-size: 17px;&quot;&gt;&lt;b&gt;Duration&lt;/b&gt;&lt;/font&gt;" style="text;html=1;align=center;verticalAlign=middle;resizable=0;points=[];autosize=1;strokeColor=none;fillColor=none;fontFamily=Architects Daughter;fontSource=https%3A%2F%2Ffonts.googleapis.com%2Fcss%3Ffamily%3DArchitects%2BDaughter;" vertex="1" parent="1">
          <mxGeometry x="218" y="254" width="90" height="30" as="geometry" />
        </mxCell>
        <mxCell id="wdkWQH8ycHaQAplH8aqO-20" value="&lt;span style=&quot;font-size: 17px;&quot;&gt;&lt;b&gt;Descreption&lt;/b&gt;&lt;/span&gt;" style="text;html=1;align=center;verticalAlign=middle;resizable=0;points=[];autosize=1;strokeColor=none;fillColor=none;fontFamily=Architects Daughter;fontSource=https%3A%2F%2Ffonts.googleapis.com%2Fcss%3Ffamily%3DArchitects%2BDaughter;" vertex="1" parent="1">
          <mxGeometry x="303" y="255" width="120" height="30" as="geometry" />
        </mxCell>
        <mxCell id="wdkWQH8ycHaQAplH8aqO-21" value="" style="endArrow=none;html=1;rounded=0;fontFamily=Architects Daughter;fontSource=https%3A%2F%2Ffonts.googleapis.com%2Fcss%3Ffamily%3DArchitects%2BDaughter;" edge="1" parent="1">
          <mxGeometry width="50" height="50" relative="1" as="geometry">
            <mxPoint x="305" y="299" as="sourcePoint" />
            <mxPoint x="305" y="239" as="targetPoint" />
          </mxGeometry>
        </mxCell>
        <mxCell id="wdkWQH8ycHaQAplH8aqO-60" style="edgeStyle=orthogonalEdgeStyle;rounded=0;orthogonalLoop=1;jettySize=auto;html=1;exitX=0.75;exitY=1;exitDx=0;exitDy=0;entryX=0;entryY=0.5;entryDx=0;entryDy=0;" edge="1" parent="1" source="wdkWQH8ycHaQAplH8aqO-25" target="wdkWQH8ycHaQAplH8aqO-39">
          <mxGeometry relative="1" as="geometry">
            <Array as="points">
              <mxPoint x="284" y="440" />
              <mxPoint x="60" y="440" />
              <mxPoint x="60" y="664" />
            </Array>
          </mxGeometry>
        </mxCell>
        <mxCell id="wdkWQH8ycHaQAplH8aqO-25" value="" style="rounded=0;whiteSpace=wrap;html=1;fontFamily=Architects Daughter;fontSource=https%3A%2F%2Ffonts.googleapis.com%2Fcss%3Ffamily%3DArchitects%2BDaughter;" vertex="1" parent="1">
          <mxGeometry x="84" y="369" width="396" height="60" as="geometry" />
        </mxCell>
        <mxCell id="wdkWQH8ycHaQAplH8aqO-26" value="" style="endArrow=none;html=1;rounded=0;fontFamily=Architects Daughter;fontSource=https%3A%2F%2Ffonts.googleapis.com%2Fcss%3Ffamily%3DArchitects%2BDaughter;" edge="1" parent="1">
          <mxGeometry width="50" height="50" relative="1" as="geometry">
            <mxPoint x="144" y="429" as="sourcePoint" />
            <mxPoint x="144" y="369" as="targetPoint" />
          </mxGeometry>
        </mxCell>
        <mxCell id="wdkWQH8ycHaQAplH8aqO-27" value="&lt;font style=&quot;font-size: 18px;&quot;&gt;&lt;b style=&quot;font-size: 18px;&quot;&gt;Department&lt;/b&gt;&lt;/font&gt;" style="text;html=1;align=center;verticalAlign=middle;resizable=0;points=[];autosize=1;strokeColor=none;fillColor=none;fontFamily=Architects Daughter;fontSource=https%3A%2F%2Ffonts.googleapis.com%2Fcss%3Ffamily%3DArchitects%2BDaughter;fontSize=18;" vertex="1" parent="1">
          <mxGeometry x="77" y="329" width="120" height="40" as="geometry" />
        </mxCell>
        <mxCell id="wdkWQH8ycHaQAplH8aqO-28" value="&lt;font style=&quot;font-size: 17px;&quot;&gt;&lt;b&gt;id&lt;/b&gt;&lt;/font&gt;" style="text;html=1;align=center;verticalAlign=middle;resizable=0;points=[];autosize=1;strokeColor=none;fillColor=none;fontStyle=4;fontFamily=Architects Daughter;fontSource=https%3A%2F%2Ffonts.googleapis.com%2Fcss%3Ffamily%3DArchitects%2BDaughter;" vertex="1" parent="1">
          <mxGeometry x="99" y="384" width="30" height="30" as="geometry" />
        </mxCell>
        <mxCell id="wdkWQH8ycHaQAplH8aqO-29" value="&lt;font style=&quot;font-size: 17px;&quot;&gt;&lt;b&gt;name&lt;/b&gt;&lt;/font&gt;" style="text;html=1;align=center;verticalAlign=middle;resizable=0;points=[];autosize=1;strokeColor=none;fillColor=none;fontFamily=Architects Daughter;fontSource=https%3A%2F%2Ffonts.googleapis.com%2Fcss%3Ffamily%3DArchitects%2BDaughter;" vertex="1" parent="1">
          <mxGeometry x="154" y="384" width="60" height="30" as="geometry" />
        </mxCell>
        <mxCell id="wdkWQH8ycHaQAplH8aqO-34" value="" style="rounded=0;whiteSpace=wrap;html=1;fontFamily=Architects Daughter;fontSource=https%3A%2F%2Ffonts.googleapis.com%2Fcss%3Ffamily%3DArchitects%2BDaughter;" vertex="1" parent="1">
          <mxGeometry x="84" y="500" width="136" height="60" as="geometry" />
        </mxCell>
        <mxCell id="wdkWQH8ycHaQAplH8aqO-35" value="" style="endArrow=none;html=1;rounded=0;fontFamily=Architects Daughter;fontSource=https%3A%2F%2Ffonts.googleapis.com%2Fcss%3Ffamily%3DArchitects%2BDaughter;" edge="1" parent="1">
          <mxGeometry width="50" height="50" relative="1" as="geometry">
            <mxPoint x="144" y="560" as="sourcePoint" />
            <mxPoint x="144" y="500" as="targetPoint" />
          </mxGeometry>
        </mxCell>
        <mxCell id="wdkWQH8ycHaQAplH8aqO-36" value="&lt;font style=&quot;font-size: 18px;&quot;&gt;&lt;b style=&quot;font-size: 18px;&quot;&gt;Topic&lt;/b&gt;&lt;/font&gt;" style="text;html=1;align=center;verticalAlign=middle;resizable=0;points=[];autosize=1;strokeColor=none;fillColor=none;fontFamily=Architects Daughter;fontSource=https%3A%2F%2Ffonts.googleapis.com%2Fcss%3Ffamily%3DArchitects%2BDaughter;fontSize=18;" vertex="1" parent="1">
          <mxGeometry x="74" y="460" width="70" height="40" as="geometry" />
        </mxCell>
        <mxCell id="wdkWQH8ycHaQAplH8aqO-37" value="&lt;font style=&quot;font-size: 17px;&quot;&gt;&lt;b&gt;id&lt;/b&gt;&lt;/font&gt;" style="text;html=1;align=center;verticalAlign=middle;resizable=0;points=[];autosize=1;strokeColor=none;fillColor=none;fontStyle=4;fontFamily=Architects Daughter;fontSource=https%3A%2F%2Ffonts.googleapis.com%2Fcss%3Ffamily%3DArchitects%2BDaughter;" vertex="1" parent="1">
          <mxGeometry x="99" y="515" width="30" height="30" as="geometry" />
        </mxCell>
        <mxCell id="wdkWQH8ycHaQAplH8aqO-38" value="&lt;font style=&quot;font-size: 17px;&quot;&gt;&lt;b&gt;name&lt;/b&gt;&lt;/font&gt;" style="text;html=1;align=center;verticalAlign=middle;resizable=0;points=[];autosize=1;strokeColor=none;fillColor=none;fontFamily=Architects Daughter;fontSource=https%3A%2F%2Ffonts.googleapis.com%2Fcss%3Ffamily%3DArchitects%2BDaughter;" vertex="1" parent="1">
          <mxGeometry x="154" y="515" width="60" height="30" as="geometry" />
        </mxCell>
        <mxCell id="wdkWQH8ycHaQAplH8aqO-65" style="edgeStyle=orthogonalEdgeStyle;rounded=0;orthogonalLoop=1;jettySize=auto;html=1;exitX=0.75;exitY=1;exitDx=0;exitDy=0;entryX=0;entryY=0.5;entryDx=0;entryDy=0;" edge="1" parent="1" source="wdkWQH8ycHaQAplH8aqO-39" target="wdkWQH8ycHaQAplH8aqO-25">
          <mxGeometry relative="1" as="geometry">
            <Array as="points">
              <mxPoint x="600" y="694" />
              <mxPoint x="600" y="720" />
              <mxPoint x="20" y="720" />
              <mxPoint x="20" y="399" />
            </Array>
          </mxGeometry>
        </mxCell>
        <mxCell id="wdkWQH8ycHaQAplH8aqO-39" value="" style="rounded=0;whiteSpace=wrap;html=1;fontFamily=Architects Daughter;fontSource=https%3A%2F%2Ffonts.googleapis.com%2Fcss%3Ffamily%3DArchitects%2BDaughter;" vertex="1" parent="1">
          <mxGeometry x="84" y="634" width="556" height="60" as="geometry" />
        </mxCell>
        <mxCell id="wdkWQH8ycHaQAplH8aqO-40" value="" style="endArrow=none;html=1;rounded=0;fontFamily=Architects Daughter;fontSource=https%3A%2F%2Ffonts.googleapis.com%2Fcss%3Ffamily%3DArchitects%2BDaughter;" edge="1" parent="1">
          <mxGeometry width="50" height="50" relative="1" as="geometry">
            <mxPoint x="144" y="694" as="sourcePoint" />
            <mxPoint x="144" y="634" as="targetPoint" />
          </mxGeometry>
        </mxCell>
        <mxCell id="wdkWQH8ycHaQAplH8aqO-41" value="&lt;font style=&quot;font-size: 18px;&quot;&gt;&lt;b style=&quot;font-size: 18px;&quot;&gt;instructor&lt;/b&gt;&lt;/font&gt;" style="text;html=1;align=center;verticalAlign=middle;resizable=0;points=[];autosize=1;strokeColor=none;fillColor=none;fontFamily=Architects Daughter;fontSource=https%3A%2F%2Ffonts.googleapis.com%2Fcss%3Ffamily%3DArchitects%2BDaughter;fontSize=18;" vertex="1" parent="1">
          <mxGeometry x="76" y="594" width="110" height="40" as="geometry" />
        </mxCell>
        <mxCell id="wdkWQH8ycHaQAplH8aqO-42" value="&lt;font style=&quot;font-size: 17px;&quot;&gt;&lt;b&gt;id&lt;/b&gt;&lt;/font&gt;" style="text;html=1;align=center;verticalAlign=middle;resizable=0;points=[];autosize=1;strokeColor=none;fillColor=none;fontStyle=4;fontFamily=Architects Daughter;fontSource=https%3A%2F%2Ffonts.googleapis.com%2Fcss%3Ffamily%3DArchitects%2BDaughter;" vertex="1" parent="1">
          <mxGeometry x="99" y="649" width="30" height="30" as="geometry" />
        </mxCell>
        <mxCell id="wdkWQH8ycHaQAplH8aqO-43" value="&lt;font style=&quot;font-size: 17px;&quot;&gt;&lt;b&gt;name&lt;/b&gt;&lt;/font&gt;" style="text;html=1;align=center;verticalAlign=middle;resizable=0;points=[];autosize=1;strokeColor=none;fillColor=none;fontFamily=Architects Daughter;fontSource=https%3A%2F%2Ffonts.googleapis.com%2Fcss%3Ffamily%3DArchitects%2BDaughter;" vertex="1" parent="1">
          <mxGeometry x="154" y="649" width="60" height="30" as="geometry" />
        </mxCell>
        <mxCell id="wdkWQH8ycHaQAplH8aqO-44" value="" style="endArrow=none;html=1;rounded=0;fontFamily=Architects Daughter;fontSource=https%3A%2F%2Ffonts.googleapis.com%2Fcss%3Ffamily%3DArchitects%2BDaughter;" edge="1" parent="1">
          <mxGeometry width="50" height="50" relative="1" as="geometry">
            <mxPoint x="220" y="694" as="sourcePoint" />
            <mxPoint x="220" y="634" as="targetPoint" />
          </mxGeometry>
        </mxCell>
        <mxCell id="wdkWQH8ycHaQAplH8aqO-45" value="&lt;font style=&quot;font-size: 17px;&quot;&gt;&lt;b&gt;bonus&lt;/b&gt;&lt;/font&gt;" style="text;html=1;align=center;verticalAlign=middle;resizable=0;points=[];autosize=1;strokeColor=none;fillColor=none;fontFamily=Architects Daughter;fontSource=https%3A%2F%2Ffonts.googleapis.com%2Fcss%3Ffamily%3DArchitects%2BDaughter;" vertex="1" parent="1">
          <mxGeometry x="225" y="649" width="70" height="30" as="geometry" />
        </mxCell>
        <mxCell id="wdkWQH8ycHaQAplH8aqO-46" value="" style="endArrow=none;html=1;rounded=0;fontFamily=Architects Daughter;fontSource=https%3A%2F%2Ffonts.googleapis.com%2Fcss%3Ffamily%3DArchitects%2BDaughter;" edge="1" parent="1">
          <mxGeometry width="50" height="50" relative="1" as="geometry">
            <mxPoint x="297" y="694" as="sourcePoint" />
            <mxPoint x="297" y="634" as="targetPoint" />
          </mxGeometry>
        </mxCell>
        <mxCell id="wdkWQH8ycHaQAplH8aqO-47" value="&lt;font style=&quot;font-size: 17px;&quot;&gt;&lt;b&gt;address&lt;/b&gt;&lt;/font&gt;" style="text;html=1;align=center;verticalAlign=middle;resizable=0;points=[];autosize=1;strokeColor=none;fillColor=none;fontFamily=Architects Daughter;fontSource=https%3A%2F%2Ffonts.googleapis.com%2Fcss%3Ffamily%3DArchitects%2BDaughter;" vertex="1" parent="1">
          <mxGeometry x="293" y="649" width="90" height="30" as="geometry" />
        </mxCell>
        <mxCell id="wdkWQH8ycHaQAplH8aqO-48" value="" style="endArrow=none;html=1;rounded=0;fontFamily=Architects Daughter;fontSource=https%3A%2F%2Ffonts.googleapis.com%2Fcss%3Ffamily%3DArchitects%2BDaughter;" edge="1" parent="1">
          <mxGeometry width="50" height="50" relative="1" as="geometry">
            <mxPoint x="377" y="694" as="sourcePoint" />
            <mxPoint x="377" y="634" as="targetPoint" />
          </mxGeometry>
        </mxCell>
        <mxCell id="wdkWQH8ycHaQAplH8aqO-49" value="&lt;font style=&quot;font-size: 17px;&quot;&gt;&lt;b&gt;salary&lt;/b&gt;&lt;/font&gt;" style="text;html=1;align=center;verticalAlign=middle;resizable=0;points=[];autosize=1;strokeColor=none;fillColor=none;fontFamily=Architects Daughter;fontSource=https%3A%2F%2Ffonts.googleapis.com%2Fcss%3Ffamily%3DArchitects%2BDaughter;" vertex="1" parent="1">
          <mxGeometry x="376" y="649" width="70" height="30" as="geometry" />
        </mxCell>
        <mxCell id="wdkWQH8ycHaQAplH8aqO-50" value="" style="endArrow=none;html=1;rounded=0;fontFamily=Architects Daughter;fontSource=https%3A%2F%2Ffonts.googleapis.com%2Fcss%3Ffamily%3DArchitects%2BDaughter;" edge="1" parent="1">
          <mxGeometry width="50" height="50" relative="1" as="geometry">
            <mxPoint x="447" y="694" as="sourcePoint" />
            <mxPoint x="447" y="634" as="targetPoint" />
          </mxGeometry>
        </mxCell>
        <mxCell id="wdkWQH8ycHaQAplH8aqO-51" value="&lt;font style=&quot;font-size: 17px;&quot;&gt;&lt;b&gt;hour-rate&lt;/b&gt;&lt;/font&gt;" style="text;html=1;align=center;verticalAlign=middle;resizable=0;points=[];autosize=1;strokeColor=none;fillColor=none;fontFamily=Architects Daughter;fontSource=https%3A%2F%2Ffonts.googleapis.com%2Fcss%3Ffamily%3DArchitects%2BDaughter;" vertex="1" parent="1">
          <mxGeometry x="446" y="649" width="100" height="30" as="geometry" />
        </mxCell>
        <mxCell id="wdkWQH8ycHaQAplH8aqO-52" value="" style="endArrow=none;html=1;rounded=0;fontFamily=Architects Daughter;fontSource=https%3A%2F%2Ffonts.googleapis.com%2Fcss%3Ffamily%3DArchitects%2BDaughter;" edge="1" parent="1">
          <mxGeometry width="50" height="50" relative="1" as="geometry">
            <mxPoint x="213" y="429" as="sourcePoint" />
            <mxPoint x="213" y="369" as="targetPoint" />
          </mxGeometry>
        </mxCell>
        <mxCell id="wdkWQH8ycHaQAplH8aqO-53" value="&lt;font style=&quot;font-size: 17px;&quot;&gt;&lt;b&gt;instructor_id&lt;/b&gt;&lt;/font&gt;" style="text;html=1;align=center;verticalAlign=middle;resizable=0;points=[];autosize=1;strokeColor=none;fillColor=none;fontFamily=Architects Daughter;fontSource=https%3A%2F%2Ffonts.googleapis.com%2Fcss%3Ffamily%3DArchitects%2BDaughter;" vertex="1" parent="1">
          <mxGeometry x="213" y="384" width="130" height="30" as="geometry" />
        </mxCell>
        <mxCell id="wdkWQH8ycHaQAplH8aqO-54" value="" style="endArrow=none;dashed=1;html=1;dashPattern=1 3;strokeWidth=2;rounded=0;" edge="1" parent="1">
          <mxGeometry width="50" height="50" relative="1" as="geometry">
            <mxPoint x="230" y="414" as="sourcePoint" />
            <mxPoint x="330" y="414" as="targetPoint" />
          </mxGeometry>
        </mxCell>
        <mxCell id="wdkWQH8ycHaQAplH8aqO-55" value="&lt;span style=&quot;font-size: 17px;&quot;&gt;&lt;b&gt;Topic_id&lt;/b&gt;&lt;/span&gt;" style="text;html=1;align=center;verticalAlign=middle;resizable=0;points=[];autosize=1;strokeColor=none;fillColor=none;fontFamily=Architects Daughter;fontSource=https%3A%2F%2Ffonts.googleapis.com%2Fcss%3Ffamily%3DArchitects%2BDaughter;" vertex="1" parent="1">
          <mxGeometry x="422" y="255" width="90" height="30" as="geometry" />
        </mxCell>
        <mxCell id="wdkWQH8ycHaQAplH8aqO-56" value="" style="endArrow=none;html=1;rounded=0;fontFamily=Architects Daughter;fontSource=https%3A%2F%2Ffonts.googleapis.com%2Fcss%3Ffamily%3DArchitects%2BDaughter;" edge="1" parent="1">
          <mxGeometry width="50" height="50" relative="1" as="geometry">
            <mxPoint x="421" y="299" as="sourcePoint" />
            <mxPoint x="421" y="239" as="targetPoint" />
          </mxGeometry>
        </mxCell>
        <mxCell id="wdkWQH8ycHaQAplH8aqO-59" value="" style="endArrow=none;dashed=1;html=1;dashPattern=1 3;strokeWidth=2;rounded=0;" edge="1" parent="1">
          <mxGeometry width="50" height="50" relative="1" as="geometry">
            <mxPoint x="436" y="285" as="sourcePoint" />
            <mxPoint x="506" y="285.5" as="targetPoint" />
          </mxGeometry>
        </mxCell>
        <mxCell id="wdkWQH8ycHaQAplH8aqO-62" value="" style="endArrow=none;html=1;rounded=0;fontFamily=Architects Daughter;fontSource=https%3A%2F%2Ffonts.googleapis.com%2Fcss%3Ffamily%3DArchitects%2BDaughter;" edge="1" parent="1">
          <mxGeometry width="50" height="50" relative="1" as="geometry">
            <mxPoint x="541" y="694" as="sourcePoint" />
            <mxPoint x="541" y="634" as="targetPoint" />
          </mxGeometry>
        </mxCell>
        <mxCell id="wdkWQH8ycHaQAplH8aqO-63" value="&lt;font style=&quot;font-size: 17px;&quot;&gt;&lt;b&gt;Dep_id&lt;/b&gt;&lt;/font&gt;" style="text;html=1;align=center;verticalAlign=middle;resizable=0;points=[];autosize=1;strokeColor=none;fillColor=none;fontFamily=Architects Daughter;fontSource=https%3A%2F%2Ffonts.googleapis.com%2Fcss%3Ffamily%3DArchitects%2BDaughter;" vertex="1" parent="1">
          <mxGeometry x="550" y="649" width="80" height="30" as="geometry" />
        </mxCell>
        <mxCell id="wdkWQH8ycHaQAplH8aqO-64" value="" style="endArrow=none;dashed=1;html=1;dashPattern=1 3;strokeWidth=2;rounded=0;" edge="1" parent="1">
          <mxGeometry width="50" height="50" relative="1" as="geometry">
            <mxPoint x="558" y="680" as="sourcePoint" />
            <mxPoint x="628" y="680.5" as="targetPoint" />
          </mxGeometry>
        </mxCell>
        <mxCell id="wdkWQH8ycHaQAplH8aqO-73" style="edgeStyle=orthogonalEdgeStyle;rounded=0;orthogonalLoop=1;jettySize=auto;html=1;exitX=0.25;exitY=1;exitDx=0;exitDy=0;entryX=0;entryY=0.75;entryDx=0;entryDy=0;" edge="1" parent="1" source="wdkWQH8ycHaQAplH8aqO-66" target="wdkWQH8ycHaQAplH8aqO-39">
          <mxGeometry relative="1" as="geometry">
            <Array as="points">
              <mxPoint x="143" y="866" />
              <mxPoint x="40" y="866" />
              <mxPoint x="40" y="679" />
            </Array>
          </mxGeometry>
        </mxCell>
        <mxCell id="wdkWQH8ycHaQAplH8aqO-74" style="edgeStyle=orthogonalEdgeStyle;rounded=0;orthogonalLoop=1;jettySize=auto;html=1;exitX=0.75;exitY=1;exitDx=0;exitDy=0;entryX=0;entryY=0.5;entryDx=0;entryDy=0;" edge="1" parent="1" source="wdkWQH8ycHaQAplH8aqO-66" target="wdkWQH8ycHaQAplH8aqO-13">
          <mxGeometry relative="1" as="geometry">
            <Array as="points">
              <mxPoint x="261" y="880" />
              <mxPoint x="30" y="880" />
              <mxPoint x="30" y="269" />
            </Array>
          </mxGeometry>
        </mxCell>
        <mxCell id="wdkWQH8ycHaQAplH8aqO-66" value="" style="rounded=0;whiteSpace=wrap;html=1;fontFamily=Architects Daughter;fontSource=https%3A%2F%2Ffonts.googleapis.com%2Fcss%3Ffamily%3DArchitects%2BDaughter;" vertex="1" parent="1">
          <mxGeometry x="84" y="786" width="236" height="60" as="geometry" />
        </mxCell>
        <mxCell id="wdkWQH8ycHaQAplH8aqO-67" value="" style="endArrow=none;html=1;rounded=0;fontFamily=Architects Daughter;fontSource=https%3A%2F%2Ffonts.googleapis.com%2Fcss%3Ffamily%3DArchitects%2BDaughter;" edge="1" parent="1">
          <mxGeometry width="50" height="50" relative="1" as="geometry">
            <mxPoint x="214" y="846" as="sourcePoint" />
            <mxPoint x="214" y="786" as="targetPoint" />
          </mxGeometry>
        </mxCell>
        <mxCell id="wdkWQH8ycHaQAplH8aqO-68" value="&lt;font style=&quot;font-size: 18px;&quot;&gt;&lt;b style=&quot;font-size: 18px;&quot;&gt;Instructor_course&lt;/b&gt;&lt;/font&gt;" style="text;html=1;align=center;verticalAlign=middle;resizable=0;points=[];autosize=1;strokeColor=none;fillColor=none;fontFamily=Architects Daughter;fontSource=https%3A%2F%2Ffonts.googleapis.com%2Fcss%3Ffamily%3DArchitects%2BDaughter;fontSize=18;" vertex="1" parent="1">
          <mxGeometry x="75" y="746" width="180" height="40" as="geometry" />
        </mxCell>
        <mxCell id="wdkWQH8ycHaQAplH8aqO-69" value="&lt;span style=&quot;font-size: 17px;&quot;&gt;&lt;b&gt;instructor_id&lt;/b&gt;&lt;/span&gt;" style="text;html=1;align=center;verticalAlign=middle;resizable=0;points=[];autosize=1;strokeColor=none;fillColor=none;fontStyle=0;fontFamily=Architects Daughter;fontSource=https%3A%2F%2Ffonts.googleapis.com%2Fcss%3Ffamily%3DArchitects%2BDaughter;" vertex="1" parent="1">
          <mxGeometry x="80" y="801" width="130" height="30" as="geometry" />
        </mxCell>
        <mxCell id="wdkWQH8ycHaQAplH8aqO-70" value="&lt;font style=&quot;font-size: 17px;&quot;&gt;&lt;b&gt;course_id&lt;/b&gt;&lt;/font&gt;" style="text;html=1;align=center;verticalAlign=middle;resizable=0;points=[];autosize=1;strokeColor=none;fillColor=none;fontFamily=Architects Daughter;fontSource=https%3A%2F%2Ffonts.googleapis.com%2Fcss%3Ffamily%3DArchitects%2BDaughter;" vertex="1" parent="1">
          <mxGeometry x="220" y="801" width="100" height="30" as="geometry" />
        </mxCell>
        <mxCell id="wdkWQH8ycHaQAplH8aqO-71" value="" style="endArrow=none;html=1;rounded=0;" edge="1" parent="1">
          <mxGeometry width="50" height="50" relative="1" as="geometry">
            <mxPoint x="98" y="829" as="sourcePoint" />
            <mxPoint x="306" y="829" as="targetPoint" />
          </mxGeometry>
        </mxCell>
        <mxCell id="wdkWQH8ycHaQAplH8aqO-72" value="" style="endArrow=none;html=1;rounded=0;dashed=1;" edge="1" parent="1">
          <mxGeometry width="50" height="50" relative="1" as="geometry">
            <mxPoint x="98" y="836" as="sourcePoint" />
            <mxPoint x="306" y="836" as="targetPoint" />
          </mxGeometry>
        </mxCell>
        <mxCell id="wdkWQH8ycHaQAplH8aqO-75" value="" style="endArrow=none;html=1;rounded=0;fontFamily=Architects Daughter;fontSource=https%3A%2F%2Ffonts.googleapis.com%2Fcss%3Ffamily%3DArchitects%2BDaughter;" edge="1" parent="1">
          <mxGeometry width="50" height="50" relative="1" as="geometry">
            <mxPoint x="461" y="159" as="sourcePoint" />
            <mxPoint x="461" y="99" as="targetPoint" />
          </mxGeometry>
        </mxCell>
        <mxCell id="wdkWQH8ycHaQAplH8aqO-76" value="&lt;font style=&quot;font-size: 17px;&quot;&gt;&lt;b&gt;Dep_id&lt;/b&gt;&lt;/font&gt;" style="text;html=1;align=center;verticalAlign=middle;resizable=0;points=[];autosize=1;strokeColor=none;fillColor=none;fontFamily=Architects Daughter;fontSource=https%3A%2F%2Ffonts.googleapis.com%2Fcss%3Ffamily%3DArchitects%2BDaughter;" vertex="1" parent="1">
          <mxGeometry x="479" y="114" width="80" height="30" as="geometry" />
        </mxCell>
        <mxCell id="wdkWQH8ycHaQAplH8aqO-77" value="" style="endArrow=none;dashed=1;html=1;dashPattern=1 3;strokeWidth=2;rounded=0;" edge="1" parent="1">
          <mxGeometry width="50" height="50" relative="1" as="geometry">
            <mxPoint x="487" y="145" as="sourcePoint" />
            <mxPoint x="557" y="145.5" as="targetPoint" />
          </mxGeometry>
        </mxCell>
        <mxCell id="wdkWQH8ycHaQAplH8aqO-86" style="edgeStyle=orthogonalEdgeStyle;rounded=0;orthogonalLoop=1;jettySize=auto;html=1;exitX=0.25;exitY=1;exitDx=0;exitDy=0;entryX=0;entryY=0.5;entryDx=0;entryDy=0;" edge="1" parent="1" source="wdkWQH8ycHaQAplH8aqO-79" target="wdkWQH8ycHaQAplH8aqO-1">
          <mxGeometry relative="1" as="geometry">
            <Array as="points">
              <mxPoint x="143" y="1020" />
              <mxPoint x="10" y="1020" />
              <mxPoint x="10" y="129" />
            </Array>
          </mxGeometry>
        </mxCell>
        <mxCell id="wdkWQH8ycHaQAplH8aqO-87" style="edgeStyle=orthogonalEdgeStyle;rounded=0;orthogonalLoop=1;jettySize=auto;html=1;exitX=0.75;exitY=1;exitDx=0;exitDy=0;entryX=0;entryY=0.75;entryDx=0;entryDy=0;" edge="1" parent="1" source="wdkWQH8ycHaQAplH8aqO-79" target="wdkWQH8ycHaQAplH8aqO-13">
          <mxGeometry relative="1" as="geometry">
            <Array as="points">
              <mxPoint x="261" y="1040" />
              <mxPoint y="1040" />
              <mxPoint y="284" />
            </Array>
          </mxGeometry>
        </mxCell>
        <mxCell id="wdkWQH8ycHaQAplH8aqO-79" value="" style="rounded=0;whiteSpace=wrap;html=1;fontFamily=Architects Daughter;fontSource=https%3A%2F%2Ffonts.googleapis.com%2Fcss%3Ffamily%3DArchitects%2BDaughter;" vertex="1" parent="1">
          <mxGeometry x="84" y="940" width="346" height="60" as="geometry" />
        </mxCell>
        <mxCell id="wdkWQH8ycHaQAplH8aqO-80" value="" style="endArrow=none;html=1;rounded=0;fontFamily=Architects Daughter;fontSource=https%3A%2F%2Ffonts.googleapis.com%2Fcss%3Ffamily%3DArchitects%2BDaughter;" edge="1" parent="1">
          <mxGeometry width="50" height="50" relative="1" as="geometry">
            <mxPoint x="214" y="1000" as="sourcePoint" />
            <mxPoint x="214" y="940" as="targetPoint" />
          </mxGeometry>
        </mxCell>
        <mxCell id="wdkWQH8ycHaQAplH8aqO-81" value="&lt;font style=&quot;font-size: 18px;&quot;&gt;&lt;b style=&quot;font-size: 18px;&quot;&gt;Student_course&lt;/b&gt;&lt;/font&gt;" style="text;html=1;align=center;verticalAlign=middle;resizable=0;points=[];autosize=1;strokeColor=none;fillColor=none;fontFamily=Architects Daughter;fontSource=https%3A%2F%2Ffonts.googleapis.com%2Fcss%3Ffamily%3DArchitects%2BDaughter;fontSize=18;" vertex="1" parent="1">
          <mxGeometry x="77" y="900" width="160" height="40" as="geometry" />
        </mxCell>
        <mxCell id="wdkWQH8ycHaQAplH8aqO-82" value="&lt;span style=&quot;font-size: 17px;&quot;&gt;&lt;b&gt;Student_id&lt;/b&gt;&lt;/span&gt;" style="text;html=1;align=center;verticalAlign=middle;resizable=0;points=[];autosize=1;strokeColor=none;fillColor=none;fontStyle=0;fontFamily=Architects Daughter;fontSource=https%3A%2F%2Ffonts.googleapis.com%2Fcss%3Ffamily%3DArchitects%2BDaughter;" vertex="1" parent="1">
          <mxGeometry x="90" y="955" width="110" height="30" as="geometry" />
        </mxCell>
        <mxCell id="wdkWQH8ycHaQAplH8aqO-83" value="&lt;font style=&quot;font-size: 17px;&quot;&gt;&lt;b&gt;course_id&lt;/b&gt;&lt;/font&gt;" style="text;html=1;align=center;verticalAlign=middle;resizable=0;points=[];autosize=1;strokeColor=none;fillColor=none;fontFamily=Architects Daughter;fontSource=https%3A%2F%2Ffonts.googleapis.com%2Fcss%3Ffamily%3DArchitects%2BDaughter;" vertex="1" parent="1">
          <mxGeometry x="220" y="955" width="100" height="30" as="geometry" />
        </mxCell>
        <mxCell id="wdkWQH8ycHaQAplH8aqO-84" value="" style="endArrow=none;html=1;rounded=0;" edge="1" parent="1">
          <mxGeometry width="50" height="50" relative="1" as="geometry">
            <mxPoint x="98" y="983" as="sourcePoint" />
            <mxPoint x="306" y="983" as="targetPoint" />
          </mxGeometry>
        </mxCell>
        <mxCell id="wdkWQH8ycHaQAplH8aqO-85" value="" style="endArrow=none;html=1;rounded=0;dashed=1;" edge="1" parent="1">
          <mxGeometry width="50" height="50" relative="1" as="geometry">
            <mxPoint x="98" y="990" as="sourcePoint" />
            <mxPoint x="306" y="990" as="targetPoint" />
          </mxGeometry>
        </mxCell>
        <mxCell id="wdkWQH8ycHaQAplH8aqO-92" value="" style="endArrow=none;html=1;rounded=0;fontFamily=Architects Daughter;fontSource=https%3A%2F%2Ffonts.googleapis.com%2Fcss%3Ffamily%3DArchitects%2BDaughter;" edge="1" parent="1">
          <mxGeometry width="50" height="50" relative="1" as="geometry">
            <mxPoint x="319" y="1000" as="sourcePoint" />
            <mxPoint x="319" y="940" as="targetPoint" />
          </mxGeometry>
        </mxCell>
        <mxCell id="wdkWQH8ycHaQAplH8aqO-93" value="&lt;font style=&quot;font-size: 17px;&quot;&gt;&lt;b&gt;grade&lt;/b&gt;&lt;/font&gt;" style="text;html=1;align=center;verticalAlign=middle;resizable=0;points=[];autosize=1;strokeColor=none;fillColor=none;fontFamily=Architects Daughter;fontSource=https%3A%2F%2Ffonts.googleapis.com%2Fcss%3Ffamily%3DArchitects%2BDaughter;" vertex="1" parent="1">
          <mxGeometry x="340" y="955" width="70" height="30" as="geometry" />
        </mxCell>
        <mxCell id="wdkWQH8ycHaQAplH8aqO-94" value="" style="endArrow=none;html=1;rounded=0;fontFamily=Architects Daughter;fontSource=https%3A%2F%2Ffonts.googleapis.com%2Fcss%3Ffamily%3DArchitects%2BDaughter;" edge="1" parent="1">
          <mxGeometry width="50" height="50" relative="1" as="geometry">
            <mxPoint x="340" y="429" as="sourcePoint" />
            <mxPoint x="340" y="369" as="targetPoint" />
          </mxGeometry>
        </mxCell>
        <mxCell id="wdkWQH8ycHaQAplH8aqO-95" value="&lt;font style=&quot;font-size: 17px;&quot;&gt;&lt;b&gt;hiring_date&lt;/b&gt;&lt;/font&gt;" style="text;html=1;align=center;verticalAlign=middle;resizable=0;points=[];autosize=1;strokeColor=none;fillColor=none;fontFamily=Architects Daughter;fontSource=https%3A%2F%2Ffonts.googleapis.com%2Fcss%3Ffamily%3DArchitects%2BDaughter;" vertex="1" parent="1">
          <mxGeometry x="353" y="384" width="110" height="30" as="geometry" />
        </mxCell>
      </root>
    </mxGraphModel>
  </diagram>
</mxfile>
